<?xml version="1.0" encoding="UTF-8"?>
<svg id="Ebene_1" data-name="Ebene 1" xmlns="http://www.w3.org/2000/svg" version="1.1" viewBox="0 0 1417.32 1417.32">
  <defs>
    <style>
      .cls-1 {
        fill: none;
      }

      .cls-1, .cls-2, .cls-3, .cls-4 {
        stroke-width: 0px;
      }

      .cls-2 {
        fill: #1e1e1c;
      }

      .cls-3 {
        fill: #9a145c;
      }

      .cls-4 {
        fill: #e50c7e;
      }
    </style>
  </defs>
  <path class="cls-1" d="M650.2,702.62c-.15.65-.32,1.45-.5,2.43l-11.66,66.23h56.78c2.64,0,4.53-.07,5.88-.16.12-.61.26-1.33.4-2.19l.03-.17,11.67-66.32h-56.5c-2.81,0-4.76.08-6.1.18Z"/>
  <path class="cls-1" d="M993.96,786.17c.07,1.26.15,2.5.22,3.71l11.44,194.52-11.44-194.52c-.07-1.22-.14-2.46-.22-3.71Z"/>
  <path class="cls-1" d="M1053.57,784.32c-.47-.62-1.09-1.12-1.85-1.49-.76-.37-1.68-.56-2.75-.56-1.49,0-2.8.34-3.9,1.03-1.11.69-2.02,1.57-2.73,2.65-.71,1.08-1.24,2.29-1.59,3.62-.35,1.33-.52,2.63-.52,3.9,0,.92.12,1.79.36,2.62.24.82.6,1.55,1.08,2.18.48.64,1.11,1.14,1.87,1.51.76.37,1.67.56,2.74.56,1.44,0,2.7-.34,3.77-1.03s1.97-1.57,2.69-2.65c.72-1.08,1.26-2.29,1.63-3.61.36-1.32.54-2.61.54-3.89,0-.92-.11-1.8-.32-2.65-.21-.85-.55-1.58-1.03-2.2Z"/>
  <path class="cls-1" d="M1079.87,793.23c-.45-.21-.95-.34-1.49-.39-.55-.05-1.08-.07-1.61-.07h-5.75l-1.57,7.32h7.36c1.34,0,2.45-.36,3.31-1.08.86-.72,1.29-1.79,1.29-3.21,0-.7-.14-1.24-.43-1.64-.29-.4-.65-.7-1.1-.92Z"/>
  <path class="cls-1" d="M248.18,572.05c.96,1.25,2.19,2.25,3.69,2.99,1.5.74,3.31,1.11,5.42,1.11,2.85,0,5.34-.68,7.45-2.03,2.11-1.35,3.89-3.1,5.31-5.24,1.43-2.14,2.5-4.51,3.21-7.12.71-2.61,1.07-5.17,1.07-7.67,0-1.82-.21-3.57-.63-5.24-.42-1.67-1.09-3.12-2.03-4.35-.93-1.23-2.15-2.21-3.65-2.95-1.5-.74-3.31-1.11-5.42-1.11-2.95,0-5.52.68-7.71,2.03-2.19,1.35-3.98,3.1-5.39,5.24-1.4,2.14-2.45,4.53-3.14,7.16-.69,2.63-1.03,5.2-1.03,7.71,0,1.82.23,3.54.7,5.17.47,1.62,1.18,3.06,2.14,4.32Z"/>
  <path class="cls-1" d="M1118.11,686.29c-1.08.64-2.06,1.23-2.95,1.76.89-.53,1.87-1.12,2.95-1.76Z"/>
  <polygon class="cls-1" points="602.54 543.31 602.39 543.31 591.03 564.26 605.12 564.26 602.54 543.31"/>
  <path class="cls-1" d="M655.78,573.27c2.29-1.08,4.21-2.56,5.76-4.43,1.55-1.87,2.73-4.03,3.54-6.49.81-2.46,1.22-5.09,1.22-7.9,0-1.92-.21-3.65-.63-5.2-.42-1.55-1.1-2.89-2.03-4.02-.94-1.13-2.13-2-3.58-2.62-1.45-.61-3.21-.92-5.28-.92h-8.71l-7.08,33.2h8.93c2.95,0,5.57-.54,7.86-1.62Z"/>
  <path class="cls-1" d="M1136.5,675.32c-1.08.65-2.13,1.27-3.14,1.87,1.01-.6,2.05-1.23,3.14-1.87Z"/>
  <path class="cls-1" d="M1081.61,783.12c-.56-.4-1.31-.6-2.26-.6h-6.2l-1.31,6.24h6.65c1.07,0,2-.29,2.78-.88.78-.58,1.18-1.46,1.18-2.63,0-1.02-.28-1.73-.84-2.13Z"/>
  <path class="cls-1" d="M993.73,782.35h0c.08,1.29.15,2.56.22,3.82-.07-1.26-.15-2.53-.22-3.82Z"/>
  <path class="cls-1" d="M1135.72,783.08c-.4-.22-.86-.37-1.38-.45-.52-.08-1.07-.11-1.64-.11h-5.57l-1.57,7.51h5.42c.77,0,1.52-.08,2.26-.24.73-.16,1.38-.41,1.94-.75.56-.34,1.01-.77,1.35-1.31.34-.54.5-1.18.5-1.92s-.12-1.3-.35-1.74c-.24-.44-.55-.77-.95-.99Z"/>
  <polygon class="cls-1" points="1193.36 783.72 1187.61 794.33 1194.74 794.33 1193.44 783.72 1193.36 783.72"/>
  <path class="cls-2" d="M694.08,835.27l.81.07c-.2-.07-.48-.07-.81-.07Z"/>
  <path class="cls-2" d="M713.67,683.71h-57.36c-18.28,0-22.21,2.81-25.03,18l-12.37,70.3c-.56,3.09-.84,5.62-.84,7.59,0,8.72,4.78,10.4,19.4,10.4h57.36c18.56,0,22.21-2.81,24.74-18l12.37-70.3c.56-3.37.84-5.9.84-8.15,0-8.15-4.5-9.84-19.12-9.84ZM701.13,768.76l-.03.17c-.14.86-.28,1.58-.4,2.19-1.34.09-3.23.16-5.88.16h-56.78l11.66-66.23c.18-.98.35-1.78.5-2.43,1.34-.1,3.29-.18,6.1-.18h56.5l-11.67,66.32Z"/>
  <path class="cls-4" d="M389.84,644.63c.84-3.94-1.12-6.19-5.34-6.19h-43.87c-4.22,0-6.75,2.25-7.59,6.19l-12.09,68.61h-95.89l12.09-68.61c.84-3.94-1.41-6.19-5.62-6.19h-43.58c-4.22,0-6.75,2.25-7.59,6.19l-32.62,184.46c-.56,3.94,1.41,6.19,5.62,6.19h43.58c4.22,0,7.03-2.25,7.59-6.19l12.65-70.58h95.89l-12.65,70.58c-.56,3.94,1.41,6.19,5.62,6.19h43.86c4.22,0,6.75-2.25,7.31-6.19l2.22-12.54,28.18-159.38,2.22-12.54Z"/>
  <path class="cls-4" d="M540.03,790.34c-.69-.22-1.48-.35-2.42-.35h-92.26l25.59-145.37c.84-3.94-1.41-6.19-5.62-6.19h-43.58c-4.22,0-6.75,2.25-7.59,6.19l-32.62,184.46c-.56,3.94,1.41,6.19,5.62,6.19h142.6c4.22,0,6.75-2.25,7.31-6.19l2.25-12.54.43-2.4,3.22-17.96c.44-3.06-.51-5.08-2.92-5.84Z"/>
  <path class="cls-4" d="M725.16,929.01l-1.77,1.08c.54-.33,1.13-.69,1.77-1.08Z"/>
  <path class="cls-4" d="M992.16,761.52l.34-.2s0,0,0-.01c1.18-.7,2.33-1.39,3.48-2.08l112.27-67.46.22.29c.4-.24.87-.52,1.45-.86.95-.57,2.18-1.3,3.74-2.23.21-.12.42-.25.64-.38.28-.16.56-.34.86-.51.89-.53,1.87-1.12,2.95-1.76.58-.34,1.18-.7,1.81-1.08.32-.19.64-.38.97-.58,1.66-.99,3.52-2.1,5.59-3.34.83-.49,1.69-1.01,2.59-1.54.9-.54,1.83-1.09,2.8-1.67.49-.29.98-.58,1.48-.89,1.01-.6,2.05-1.23,3.14-1.87,3.25-1.94,6.86-4.1,10.86-6.49,1.33-.8,2.71-1.62,4.13-2.47,1.42-.85,2.89-1.72,4.4-2.63,7.56-4.52,16.29-9.73,26.35-15.73,11.07-6.61,23.75-14.18,38.28-22.86-231.3,0,0,0-231.3,0v-.11s-91.08.07-91.08.07l76.32-223.06-139.44,223.1-202.05,13.29c-41.05,0-49.77,13.5-55.11,44.99l-18.84,106.85c-.84,4.78-1.41,9.28-1.41,13.5,0,21.93,13.22,31.49,40.77,31.49h95.7c.33,0,.62,0,.81.07l-.81-.07-113.33,181.94,194.58-213.45,79.58,46.21,16.81,15.08c12.4,11.05,22.16,19.75,29.86,26.61,1.18,1.06,2.32,2.07,3.41,3.04,2.18,1.94,4.16,3.71,5.98,5.33.91.81,1.77,1.58,2.6,2.31.41.37.81.73,1.21,1.07.78.7,1.53,1.36,2.23,1.99,4.59,4.09,7.57,6.75,9.52,8.49.6.53,1.1.98,1.52,1.35.73.65,1.21,1.08,1.52,1.36.13.12.24.21.32.28.03.02.05.05.07.07.2.18.2.18.2.18,0,0,0,0,0,0,0,0,0,0,.03.02s.05.04.09.08.11.1.2.18c.03.03.06.05.1.09.07.06.15.14.25.22s.21.18.33.3.27.24.43.38c.16.14.34.3.54.48.4.35.87.78,1.44,1.29.29.26.6.53.93.83,1.51,1.35,3.56,3.17,6.31,5.63.31.27.62.55.95.84.65.58,1.33,1.19,2.06,1.83,1.81,1.61,3.85,3.44,6.17,5.5,1.85,1.65,3.88,3.46,6.1,5.44.55.49,1.12,1,1.7,1.51,3.47,3.09,7.38,6.58,11.78,10.5,1.47,1.31,2.99,2.66,4.56,4.07s3.21,2.86,4.9,4.37c5.08,4.53,10.68,9.52,16.87,15.04,2.06,1.84,4.19,3.74,6.39,5.69,1.1.98,2.21,1.97,3.34,2.98h0s-81.04-160.41-81.04-160.41l67.57-62.47ZM731.94,701.71l-12.37,70.3c-2.53,15.18-6.19,18-24.74,18h-57.36c-14.62,0-19.4-1.69-19.4-10.4,0-1.97.28-4.5.84-7.59l12.37-70.3c2.81-15.18,6.75-18,25.03-18h57.36c14.62,0,19.12,1.69,19.12,9.84,0,2.25-.28,4.78-.84,8.15Z"/>
  <path class="cls-4" d="M763.58,905.54l-3.97,2.42c1.28-.78,2.61-1.59,3.97-2.42Z"/>
  <path class="cls-4" d="M836.26,861.15l-7.56,4.61c2.47-1.51,4.97-3.04,7.56-4.61Z"/>
  <path class="cls-4" d="M708.35,939.27l-3.69,2.26c1.37-.84,2.6-1.59,3.69-2.26Z"/>
  <path class="cls-4" d="M993.96,786.17c-.07-1.26-.15-2.53-.22-3.82l.44,7.53c-.07-1.22-.14-2.46-.22-3.71Z"/>
  <path class="cls-4" d="M637.83,982.34l-9.03,5.52c3.12-1.9,6.13-3.74,9.03-5.52Z"/>
  <path class="cls-3" d="M590.4,1011.32c1.51-.92,3.01-1.84,4.49-2.74l14.1-8.61c1.16-.71,2.3-1.4,3.43-2.1l16.38-10,9.03-5.52,12.51-7.64c1.5-.92,2.97-1.81,4.41-2.69l13.2-8.06c.98-.6,1.95-1.19,2.89-1.77l12.54-7.66c.64-.39,1.26-.77,1.88-1.15l19.39-11.84,3.69-2.26.42-.26c.38-.23.75-.46,1.1-.67l2.56-1.56c.38-.23.74-.45,1.07-.65l1.98-1.21c.13-.08.25-.16.37-.23l.15-.09c.15-.09.29-.17.41-.25l.38-.23s.05-.03.07-.05l.48-.29c.06-.04.11-.07.15-.09l.19-.12s.03-.02.03-.02h0s0,0,0,0l.06-.03s.07-.04.13-.08l.24-.15c.08-.05.19-.11.31-.19l.3-.18c.06-.04.13-.08.19-.12l1.25-.76c.07-.04.15-.09.22-.14l2.96-1.81,1.77-1.08,6.24-3.81c.35-.21.7-.43,1.06-.65l3.55-2.17,2.98-1.82,1.94-1.18,2.88-1.76,4.56-2.79c.18-.11.37-.22.55-.34l4.29-2.62,3.84-2.34,2.56-1.56,3.97-2.42,7.47-4.56,7.2-4.4,8.46-5.16,6.44-3.93,26.18-15.99c.17-.11.34-.21.52-.32l8.85-5.41,7.56-4.61,1.88-1.15-62.81-56.24-194.58,213.45,9.65-5.89Z"/>
  <polygon class="cls-3" points="993.73 782.35 924.58 823.99 1005.62 984.4 994.18 789.88 993.73 782.35"/>
  <path class="cls-2" d="M1288.4,606.42h-164.72s-116.94-.03-116.94-.03l-17.43-263.44-165.09,264.14-191.88,12.63c-24.93.08-41.29,4.9-52.97,15.6-12.83,11.75-17.18,28.52-19.96,44.9l-16.05,91.05h-75.7l21.68-123.15c1.43-7.25-.18-14.2-4.57-19.63-4.58-5.66-11.48-8.78-19.45-8.78h-124.68c-13,0-23.17,8.24-25.9,20.98l-9.5,53.81h-57.86l8.18-46.39c1.43-7.25-.18-14.2-4.57-19.63-4.58-5.66-11.48-8.77-19.45-8.77h-43.58c-13,0-23.17,8.24-25.9,20.99l-.07.33-32.68,184.79-.1.61c-1.05,7.33.86,14.24,5.36,19.43,2.01,2.31,4.43,4.17,7.16,5.52l381.35,222.99.05-.07-.05.07,329.53-201.27,37.32,33.27,55.06,49.3.1-.14,81.88,72.98-15.12-256.96,276.54-165.13ZM357.23,829.08c-.56,3.94-3.09,6.19-7.31,6.19h-43.86c-4.22,0-6.19-2.25-5.62-6.19l12.65-70.58h-95.89l-12.65,70.58c-.56,3.94-3.37,6.19-7.59,6.19h-43.58c-4.22,0-6.19-2.25-5.62-6.19l32.62-184.46c.84-3.94,3.37-6.19,7.59-6.19h43.58c4.22,0,6.47,2.25,5.62,6.19l-12.09,68.61h95.89l12.09-68.61c.84-3.94,3.38-6.19,7.59-6.19h43.87c4.22,0,6.19,2.25,5.34,6.19l-2.22,12.54-28.18,159.38-2.22,12.54ZM542.95,796.19l-3.22,17.96-.43,2.4-2.25,12.54c-.56,3.94-3.09,6.19-7.31,6.19h-142.6c-4.22,0-6.19-2.25-5.62-6.19l32.62-184.46c.84-3.94,3.37-6.19,7.59-6.19h43.58c4.22,0,6.47,2.25,5.62,6.19l-25.59,145.37h92.26c.94,0,1.73.13,2.42.35,2.41.76,3.36,2.78,2.92,5.84ZM1005.62,984.4c-1.13-1.01-2.24-2-3.34-2.98-2.19-1.96-4.32-3.85-6.39-5.69-6.19-5.52-11.8-10.51-16.87-15.04-1.69-1.51-3.33-2.97-4.9-4.37s-3.1-2.76-4.56-4.07c-4.4-3.92-8.31-7.4-11.78-10.5-.58-.52-1.15-1.02-1.7-1.51-2.22-1.98-4.25-3.79-6.1-5.44-2.32-2.07-4.37-3.89-6.17-5.5-.72-.64-1.41-1.25-2.06-1.83-.32-.29-.64-.57-.95-.84-2.76-2.46-4.8-4.28-6.31-5.63-.34-.3-.65-.58-.93-.83-.57-.51-1.05-.93-1.44-1.29-.2-.18-.38-.33-.54-.48-.16-.14-.3-.27-.43-.38s-.24-.21-.33-.3-.18-.16-.25-.22c-.03-.03-.07-.06-.1-.09-.09-.08-.15-.13-.2-.18s-.07-.07-.09-.08-.02-.02-.03-.02c0,0,0,0,0,0,0,0,0,0-.2-.18-.02-.02-.05-.04-.07-.07-.08-.07-.18-.16-.32-.28-.31-.28-.79-.71-1.52-1.36-.42-.37-.92-.82-1.52-1.35-1.95-1.73-4.93-4.4-9.52-8.49-.71-.63-1.45-1.29-2.23-1.99-.39-.35-.79-.71-1.21-1.07-.82-.73-1.69-1.51-2.6-2.31-1.82-1.62-3.8-3.39-5.98-5.33-1.09-.97-2.22-1.98-3.41-3.04-7.69-6.86-17.46-15.56-29.86-26.61l-16.81-15.08-79.58-46.21,62.81,56.24-1.88,1.15c-2.58,1.58-5.09,3.11-7.56,4.61l-8.85,5.41c-.17.11-.34.21-.52.32l-26.18,15.99-6.44,3.93-8.46,5.16-7.2,4.4-7.47,4.56c-1.36.83-2.69,1.64-3.97,2.42l-2.56,1.56-3.84,2.34-4.29,2.62c-.19.11-.37.22-.55.34l-4.56,2.79-2.88,1.76-1.94,1.18-2.98,1.82-3.55,2.17c-.36.22-.72.44-1.06.65l-6.24,3.81c-.64.39-1.24.76-1.77,1.08l-2.96,1.81c-.08.05-.15.09-.22.14l-1.25.76c-.07.04-.13.08-.19.12l-.3.18c-.12.07-.22.14-.31.19l-.24.15c-.06.04-.1.06-.13.08l-.06.03s0,0,0,0h0s-.01,0-.03.02l-.19.12s-.09.06-.15.09l-.48.29s-.05.03-.07.05l-.38.23c-.13.08-.26.16-.41.25l-.15.09c-.12.07-.24.15-.37.23l-1.98,1.21c-.33.2-.69.42-1.07.65l-2.56,1.56c-.35.22-.72.44-1.1.67l-.42.26c-1.1.67-2.33,1.42-3.69,2.26l-19.39,11.84c-.61.38-1.24.76-1.88,1.15l-12.54,7.66c-.94.58-1.91,1.17-2.89,1.77l-13.2,8.06c-1.43.88-2.9,1.77-4.41,2.69l-12.51,7.64c-2.9,1.77-5.91,3.61-9.03,5.52l-16.38,10c-1.13.69-2.28,1.39-3.43,2.1l-14.1,8.61c-1.48.9-2.98,1.82-4.49,2.74l-9.65,5.89,113.33-181.94h-95.7c-27.56,0-40.77-9.56-40.77-31.49,0-4.22.56-8.72,1.41-13.5l18.84-106.85c5.34-31.49,14.06-44.99,55.11-44.99l202.05-13.29,139.44-223.1,13.79,204.34-90.1,18.73,91.07-.07v.11c231.31,0,0,0,231.31,0-14.54,8.68-27.22,16.25-38.28,22.86-10.06,6.01-18.78,11.22-26.35,15.73-1.51.9-2.98,1.78-4.4,2.63-1.42.85-2.8,1.67-4.13,2.47-4,2.39-7.61,4.54-10.86,6.49-1.08.65-2.13,1.27-3.14,1.87-.5.3-1,.6-1.48.89-.97.58-1.9,1.14-2.8,1.67-.9.54-1.76,1.05-2.59,1.54-2.07,1.24-3.92,2.34-5.59,3.34-.33.2-.66.39-.97.58-.63.38-1.24.74-1.81,1.08-1.08.64-2.06,1.23-2.95,1.76-.3.18-.58.35-.86.51-.22.13-.44.26-.64.38-1.56.93-2.79,1.66-3.74,2.23-.57.34-1.05.63-1.45.86l-.22-.29-112.27,67.46c-1.15.69-2.3,1.38-3.48,2.08,0,0,0,0,0,.01l-.34.2-67.57,62.47,69.15-41.65h0c.08,1.29.15,2.56.22,3.82s.15,2.5.22,3.71l11.44,194.52h0Z"/>
  <polygon class="cls-3" points="988.24 606.38 974.45 402.05 898.14 625.11 988.24 606.38"/>
  <path class="cls-2" d="M1057.57,780.24c-1.02-.97-2.27-1.7-3.74-2.18-1.47-.49-3.1-.73-4.89-.73-2.24,0-4.27.44-6.07,1.31-1.81.87-3.34,2.05-4.59,3.53-1.26,1.48-2.22,3.19-2.9,5.14-.67,1.94-1.01,4-1.01,6.16,0,3.79,1.03,6.7,3.1,8.74,2.07,2.04,4.98,3.06,8.74,3.06,2.34,0,4.41-.45,6.22-1.35,1.81-.9,3.32-2.1,4.56-3.62,1.23-1.52,2.17-3.27,2.82-5.27.65-1.99.97-4.08.97-6.28,0-1.87-.28-3.51-.84-4.93s-1.35-2.62-2.37-3.59ZM1054.38,793.06c-.36,1.32-.9,2.52-1.63,3.61-.72,1.08-1.62,1.97-2.69,2.65s-2.33,1.03-3.77,1.03c-1.07,0-1.99-.19-2.74-.56-.76-.37-1.38-.88-1.87-1.51-.49-.63-.85-1.36-1.08-2.18-.24-.82-.36-1.69-.36-2.62,0-1.27.17-2.57.52-3.9.35-1.33.88-2.54,1.59-3.62.71-1.08,1.62-1.97,2.73-2.65,1.11-.69,2.41-1.03,3.9-1.03,1.07,0,1.99.19,2.75.56.76.37,1.37.87,1.85,1.49.47.62.82,1.36,1.03,2.2.21.85.32,1.73.32,2.65,0,1.27-.18,2.57-.54,3.89Z"/>
  <path class="cls-2" d="M1086,779.18c-.75-.46-1.66-.78-2.73-.95-1.07-.17-2.28-.26-3.62-.26h-11.21l-5.6,26.67h14.23c1.35,0,2.63-.19,3.85-.56,1.22-.37,2.3-.92,3.25-1.64.95-.72,1.7-1.63,2.26-2.73.56-1.1.84-2.37.84-3.81,0-1.29-.34-2.43-1.03-3.42-.69-.98-1.66-1.65-2.93-2v-.07c.77-.1,1.47-.34,2.09-.71.62-.37,1.15-.84,1.59-1.4.44-.56.77-1.2.99-1.91s.34-1.44.34-2.19c0-1.27-.2-2.31-.6-3.12-.4-.81-.97-1.44-1.72-1.91ZM1080.12,799c-.86.72-1.96,1.08-3.31,1.08h-7.36l1.57-7.32h5.75c.52,0,1.06.03,1.61.07.55.05,1.05.18,1.49.39.45.21.82.52,1.1.92.29.4.43.95.43,1.64,0,1.42-.43,2.49-1.29,3.21ZM1081.27,787.88c-.78.59-1.71.88-2.78.88h-6.65l1.31-6.24h6.2c.95,0,1.7.2,2.26.6.56.4.84,1.11.84,2.13,0,1.17-.39,2.05-1.18,2.63Z"/>
  <polygon class="cls-2" points="1115.7 782.9 1116.71 777.97 1096.35 777.97 1090.74 804.64 1111.33 804.64 1112.37 799.71 1097.65 799.71 1099.04 793.17 1112.45 793.17 1113.42 788.61 1100.01 788.61 1101.2 782.9 1115.7 782.9"/>
  <path class="cls-2" d="M1140.73,779.5c-.7-.55-1.54-.95-2.52-1.2-.98-.25-2.07-.36-3.27-.34h-12.74l-5.6,26.67h5.87l2.2-10.42h5.53c.57,0,1.1.04,1.57.13.47.09.88.26,1.21.5s.6.58.78.99c.19.41.28.94.28,1.59,0,.9-.05,1.8-.15,2.71-.1.91-.15,1.81-.15,2.71,0,.3.02.59.07.88s.11.59.19.91h5.72c-.15-.4-.25-.86-.3-1.4-.05-.54-.07-1.1-.07-1.7,0-.82.03-1.65.09-2.48.06-.83.09-1.55.09-2.15,0-.52-.04-1.03-.13-1.53-.09-.5-.23-.95-.43-1.36-.2-.41-.48-.77-.84-1.08-.36-.31-.82-.55-1.36-.73v-.08c.9-.12,1.72-.4,2.47-.82.75-.42,1.39-.95,1.94-1.59.55-.63.97-1.36,1.27-2.19.3-.82.45-1.68.45-2.58,0-1.29-.19-2.39-.56-3.29-.37-.9-.91-1.62-1.61-2.17ZM1136.52,787.74c-.34.54-.78.97-1.35,1.31-.56.34-1.21.59-1.94.75-.74.16-1.49.24-2.26.24h-5.42l1.57-7.51h5.57c.57,0,1.12.04,1.64.11.52.07.98.22,1.38.45.4.22.72.55.95.99.24.44.35,1.01.35,1.74s-.17,1.39-.5,1.92Z"/>
  <polygon class="cls-2" points="1175.88 777.97 1167.74 797.43 1167.66 797.43 1166.99 777.97 1161.38 777.97 1152.94 797.5 1152.87 797.5 1152.49 777.97 1146.63 777.97 1148.46 804.64 1154.36 804.64 1162.65 785.59 1162.73 785.59 1163.4 804.64 1169.23 804.64 1181.74 777.97 1175.88 777.97"/>
  <path class="cls-2" d="M1191.49,777.97l-15.76,26.67h6.2l3.36-5.94h9.97l.86,5.94h5.83l-4.44-26.67h-6.02ZM1187.61,794.33l5.75-10.61h.08l1.31,10.61h-7.14Z"/>
  <polygon class="cls-2" points="1216.49 777.97 1210.58 777.97 1204.98 804.64 1223.77 804.64 1224.82 799.71 1211.93 799.71 1216.49 777.97"/>
  <polygon class="cls-2" points="1238.86 777.97 1232.96 777.97 1227.36 804.64 1246.15 804.64 1247.19 799.71 1234.3 799.71 1238.86 777.97"/>
  <polygon class="cls-2" points="1249.73 804.64 1255.63 804.64 1261.28 777.97 1255.37 777.97 1249.73 804.64"/>
  <path class="cls-2" d="M1272.03,782.62c.45-.26.95-.45,1.49-.56.55-.11,1.11-.17,1.68-.17.67,0,1.31.07,1.91.21.6.14,1.11.37,1.55.69.44.32.77.74,1.01,1.25.24.51.34,1.14.32,1.89h5.57c0-1.54-.27-2.86-.8-3.94-.54-1.08-1.26-1.97-2.17-2.67-.91-.7-1.97-1.2-3.18-1.51-1.21-.31-2.5-.47-3.87-.47-1.29,0-2.57.16-3.83.47-1.26.31-2.38.8-3.38,1.46-1,.66-1.81,1.51-2.43,2.56-.62,1.05-.93,2.32-.93,3.81,0,1.15.19,2.12.58,2.91.39.8.9,1.46,1.53,2,.63.54,1.35.98,2.15,1.35.8.36,1.62.67,2.47.92.82.25,1.64.49,2.45.71.81.22,1.53.48,2.17.77.63.29,1.15.64,1.55,1.06.4.42.6.96.6,1.61s-.16,1.25-.47,1.72c-.31.47-.71.86-1.2,1.16-.48.3-1.03.52-1.63.67-.6.15-1.2.22-1.79.22-.85,0-1.63-.08-2.35-.24-.72-.16-1.35-.43-1.87-.8-.52-.37-.92-.88-1.2-1.51-.27-.63-.39-1.43-.34-2.37h-5.57c0,3.24.92,5.63,2.76,7.17,1.84,1.55,4.62,2.32,8.33,2.32,1.27,0,2.55-.16,3.85-.48,1.29-.32,2.46-.83,3.49-1.53,1.03-.7,1.88-1.61,2.54-2.73.66-1.12.99-2.48.99-4.07,0-1.2-.17-2.2-.52-3.03-.35-.82-.84-1.52-1.48-2.09-.64-.57-1.39-1.04-2.26-1.4-.87-.36-1.83-.68-2.88-.95-.45-.1-1.03-.23-1.76-.39-.72-.16-1.43-.39-2.11-.67-.69-.29-1.27-.64-1.76-1.06-.48-.42-.73-.97-.73-1.64,0-.62.14-1.14.41-1.57.27-.42.63-.77,1.08-1.03Z"/>
  <polygon class="cls-2" points="190.67 561.9 211.99 561.9 207.19 584.63 218.85 584.63 229.99 531.95 218.34 531.95 214.06 552.16 192.73 552.16 197.01 531.95 185.35 531.95 174.21 584.63 185.87 584.63 190.67 561.9"/>
  <path class="cls-2" d="M257.15,585.88c4.62,0,8.72-.89,12.29-2.66,3.57-1.77,6.57-4.16,9-7.16,2.44-3,4.29-6.47,5.57-10.4,1.28-3.94,1.92-8.07,1.92-12.4,0-3.69-.55-6.94-1.66-9.74-1.11-2.8-2.67-5.17-4.68-7.08-2.02-1.92-4.48-3.36-7.38-4.32-2.9-.96-6.12-1.44-9.67-1.44-4.43,0-8.42.86-11.99,2.58-3.57,1.72-6.59,4.05-9.08,6.97-2.48,2.93-4.39,6.31-5.72,10.15-1.33,3.84-1.99,7.89-1.99,12.17,0,7.48,2.04,13.23,6.12,17.27,4.08,4.03,9.84,6.05,17.27,6.05ZM246.37,554.86c.69-2.63,1.74-5.02,3.14-7.16,1.4-2.14,3.2-3.88,5.39-5.24,2.19-1.35,4.76-2.03,7.71-2.03,2.11,0,3.92.37,5.42,1.11,1.5.74,2.72,1.72,3.65,2.95.93,1.23,1.61,2.68,2.03,4.35.42,1.67.63,3.42.63,5.24,0,2.51-.36,5.07-1.07,7.67-.71,2.61-1.78,4.98-3.21,7.12-1.43,2.14-3.2,3.89-5.31,5.24-2.12,1.35-4.6,2.03-7.45,2.03-2.11,0-3.92-.37-5.42-1.11-1.5-.74-2.73-1.73-3.69-2.99-.96-1.25-1.67-2.69-2.14-4.32-.47-1.62-.7-3.34-.7-5.17,0-2.51.34-5.08,1.03-7.71Z"/>
  <path class="cls-2" d="M316.4,585.88c2.85,0,5.5-.37,7.93-1.11,2.44-.74,4.65-1.91,6.64-3.51,1.99-1.6,3.79-3.68,5.39-6.23,1.6-2.56,2.99-5.68,4.17-9.37h-11.59c-.25,1.38-.74,2.71-1.48,3.98-.74,1.28-1.65,2.4-2.73,3.36-1.08.96-2.31,1.72-3.69,2.29-1.38.57-2.88.85-4.5.85-2.11,0-3.92-.37-5.42-1.11-1.5-.74-2.73-1.73-3.69-2.99-.96-1.25-1.67-2.69-2.14-4.32-.47-1.62-.7-3.34-.7-5.17,0-2.51.34-5.08,1.03-7.71.69-2.63,1.74-5.02,3.14-7.16,1.4-2.14,3.2-3.88,5.39-5.24,2.19-1.35,4.76-2.03,7.71-2.03s5.08.82,6.82,2.47c1.75,1.65,2.62,4.1,2.62,7.34h11.58c.05-3.2-.44-6.01-1.48-8.45-1.03-2.44-2.5-4.48-4.39-6.12-1.89-1.65-4.14-2.89-6.75-3.73-2.61-.84-5.44-1.25-8.49-1.25-4.43,0-8.42.86-11.99,2.58-3.57,1.72-6.59,4.05-9.08,6.97-2.48,2.93-4.39,6.31-5.72,10.15-1.33,3.84-1.99,7.89-1.99,12.17,0,7.48,2.04,13.23,6.12,17.27,4.08,4.03,9.84,6.05,17.27,6.05Z"/>
  <polygon class="cls-2" points="361.63 567.95 369.67 560.94 381.7 584.63 394.76 584.63 378.6 553.64 403.91 531.95 388.56 531.95 364.65 554.01 364.51 554.01 369.08 531.95 357.5 531.95 346.5 584.63 358.16 584.63 361.63 567.95"/>
  <polygon class="cls-2" points="442.28 584.63 444.34 574.89 415.27 574.89 418 561.98 444.49 561.98 446.41 552.98 419.92 552.98 422.28 541.69 450.91 541.69 452.9 531.95 412.69 531.95 401.62 584.63 442.28 584.63"/>
  <polygon class="cls-2" points="465.89 584.63 477.55 584.63 481.6 564.71 507.28 531.95 493.63 531.95 477.25 554.38 469.36 531.95 457.48 531.95 470.09 564.19 465.89 584.63"/>
  <polygon class="cls-2" points="563.88 574.89 538.42 574.89 547.42 531.95 535.76 531.95 524.7 584.63 561.81 584.63 563.88 574.89"/>
  <path class="cls-2" d="M586.45,572.9h19.7l1.7,11.73h11.51l-8.78-52.68h-11.88l-31.14,52.68h12.25l6.64-11.73ZM602.39,543.31h.15l2.58,20.95h-14.09l11.36-20.95Z"/>
  <path class="cls-2" d="M660.72,582.19c3.81-1.62,6.98-3.87,9.52-6.75,2.53-2.88,4.44-6.28,5.72-10.22,1.28-3.94,1.92-8.19,1.92-12.77,0-6.49-1.88-11.54-5.64-15.13-3.76-3.59-9.33-5.39-16.71-5.39h-19.04l-11.14,52.68h22.06c5.07,0,9.51-.81,13.32-2.44ZM646.07,541.69h8.71c2.07,0,3.82.31,5.28.92,1.45.62,2.64,1.49,3.58,2.62.93,1.13,1.61,2.47,2.03,4.02.42,1.55.63,3.28.63,5.2,0,2.8-.41,5.44-1.22,7.9-.81,2.46-1.99,4.62-3.54,6.49-1.55,1.87-3.47,3.35-5.76,4.43-2.29,1.08-4.91,1.62-7.86,1.62h-8.93l7.08-33.2Z"/>
  <polygon class="cls-2" points="704.66 531.95 693 531.95 681.86 584.63 693.52 584.63 704.66 531.95"/>
  <polygon class="cls-2" points="748.27 574.89 719.2 574.89 721.93 561.98 748.41 561.98 750.33 552.98 723.84 552.98 726.2 541.69 754.83 541.69 756.83 531.95 716.61 531.95 705.54 584.63 746.2 584.63 748.27 574.89"/>
  <path class="cls-2" d="M757.27,567.14c0,6.4,1.82,11.12,5.46,14.17,3.64,3.05,9.12,4.57,16.46,4.57,2.51,0,5.04-.32,7.6-.96s4.86-1.65,6.9-3.03c2.04-1.38,3.71-3.17,5.02-5.39,1.3-2.21,1.96-4.89,1.96-8.04,0-2.36-.35-4.35-1.03-5.98-.69-1.62-1.66-3-2.91-4.13-1.25-1.13-2.74-2.05-4.46-2.77-1.72-.71-3.62-1.34-5.68-1.88-.89-.2-2.04-.45-3.47-.77-1.43-.32-2.82-.76-4.17-1.33-1.35-.57-2.51-1.27-3.47-2.1-.96-.84-1.44-1.92-1.44-3.25,0-1.23.27-2.26.81-3.1.54-.84,1.25-1.51,2.14-2.03.89-.52,1.87-.89,2.95-1.11,1.08-.22,2.19-.33,3.32-.33,1.33,0,2.58.14,3.76.41,1.18.27,2.2.73,3.06,1.37.86.64,1.52,1.46,1.99,2.47.47,1.01.68,2.25.63,3.73h11c0-3.05-.53-5.64-1.59-7.78-1.06-2.14-2.49-3.9-4.28-5.28-1.8-1.38-3.89-2.37-6.27-2.99-2.39-.61-4.93-.92-7.64-.92-2.56,0-5.08.31-7.56.92-2.48.62-4.71,1.58-6.68,2.88-1.97,1.3-3.57,2.99-4.8,5.05-1.23,2.07-1.84,4.58-1.84,7.53,0,2.26.38,4.18,1.14,5.76.76,1.57,1.77,2.89,3.03,3.95,1.25,1.06,2.67,1.94,4.24,2.66,1.57.71,3.2,1.32,4.87,1.81,1.62.49,3.23.96,4.83,1.4,1.6.44,3.03.95,4.28,1.51,1.25.57,2.27,1.27,3.06,2.1.79.84,1.18,1.89,1.18,3.17s-.31,2.46-.92,3.39c-.62.94-1.4,1.7-2.36,2.29-.96.59-2.03,1.03-3.21,1.33-1.18.3-2.36.44-3.54.44-1.67,0-3.22-.16-4.65-.48-1.43-.32-2.66-.85-3.69-1.59-1.03-.74-1.82-1.73-2.36-2.99-.54-1.25-.76-2.82-.66-4.69h-10.99Z"/>
</svg>