<?xml version="1.0" encoding="UTF-8"?>
<svg id="Ebene_1" xmlns="http://www.w3.org/2000/svg" viewBox="0 0 841.89 466.1">
  <defs>
    <style>
      .cls-1 {
        fill: red;
      }
    </style>
  </defs>
  <path class="cls-1" d="M696.03,124.37H122.51v338.45H36.47c-19.9,0-35.92-16.03-35.92-35.93V2.78h29.67c15.48,0,28.74,13.27,28.74,28.74v230.94h23.21V2.78h577.94c19.9,0,35.93,16.03,35.93,35.93v85.66Z"/>
  <path class="cls-1" d="M261.02,380.97c0,9.4,7.18,16.58,16.02,16.58h177.41c14.92,0,27.63,12.16,27.63,27.63v38.14H175.35c-19.9,0-35.92-16.03-35.92-35.93V140.55h306.74c19.9,0,35.93,16.03,35.93,35.93v197.86l-181.83-.55c-8.84,0-16.03-7.19-16.03-16.03v-95.62h-23.21v118.83ZM324.57,289.78c0,10.5,8.29,18.79,18.79,18.79h72.96v-24.87c0-12.16-9.4-21.55-21.55-21.55h-70.19v27.63Z"/>
  <path class="cls-1" d="M841.35,33.62v429.7h-25.98c-22.11,0-39.79-18.24-39.79-39.8v-220.52h-23.21v260.32h-211.68c-23.21,0-42-18.79-42-42.01V140.55h213.33V4.33h99.48c16.03,0,29.85,13.27,29.85,29.29ZM712.02,219.03c0-7.18-5.53-12.71-12.71-12.71h-79.03v178.51c0,7.19,5.52,12.71,12.71,12.71h79.04v-178.52Z"/>
</svg>