<?xml version="1.0" encoding="utf-8"?>
<!-- Generator: Adobe Illustrator 27.9.0, SVG Export Plug-In . SVG Version: 6.00 Build 0)  -->
<svg version="1.1" xmlns="http://www.w3.org/2000/svg" xmlns:xlink="http://www.w3.org/1999/xlink" x="0px" y="0px"
	 viewBox="0 0 595.28 315.44" style="enable-background:new 0 0 595.28 315.44;" xml:space="preserve">
<style type="text/css">
	.st0{fill:#FFFFFF;}
</style>
<g id="Ebene_1">
</g>
<g id="Ebene_2">
	<path d="M367.79,135.81c-7.64,0-13.76-1.01-18.35-3.04c-4.59-2.02-7.95-5.22-10.07-9.58c-2.12-4.36-3.18-10.21-3.18-17.53v-52.3
		h-6.26c-1.61,0-2.41-0.8-2.41-2.41V35.54c0-1.6,0.8-2.41,2.41-2.41h6.26V3.37c0-1.6,0.8-2.41,2.41-2.41h19.36
		c1.6,0,2.41,0.8,2.41,2.41l0.19,29.76h15.03c1.6,0,2.41,0.8,2.41,2.41v15.41c0,1.61-0.8,2.41-2.41,2.41h-15.12v52.3
		c0,3.4,0.56,5.84,1.69,7.32c1.12,1.48,3,2.22,5.63,2.22H378c1.6,0,2.41,0.8,2.41,2.41v15.8c0,1.61-0.8,2.41-2.41,2.41H367.79z"/>
	<path d="M189.94,132.97c1.21,0.51,2.43,0.94,3.66,1.32l31.05-18.8c3.12-1.89,6.99-2.09,10.29-0.52l7.44,3.53V35.73
		c0-1.6-0.8-2.41-2.41-2.41h-19.55c-1.61,0-2.41,0.8-2.41,2.41l0.1,75.03c-0.51,1.61-1.57,2.92-3.18,3.95
		c-1.61,1.03-3.53,1.54-5.78,1.54c-2.76,0-5.01-1.01-6.74-3.03c-1.73-2.03-2.6-4.58-2.6-7.66V35.73c0-1.6-0.8-2.41-2.41-2.41h-20.42
		c-1.61,0-2.41,0.8-2.41,2.41v72.43c0,6.36,1.44,11.61,4.33,15.75C181.8,128.06,185.47,131.08,189.94,132.97z"/>
	<path d="M0.53,145.56l22.35-19.42V56.35l9.34,61.69l30.82-26.72l5.3-34.97v30.37l7.51-6.51c2.31-2,5.7-2.14,8.17-0.33l8.21,6.02
		V2.41c0-1.33-1.08-2.41-2.41-2.41H60.44c-1.48,0-2.31,0.74-2.5,2.22L46.37,84.76L34.81,2.22C34.62,0.74,33.79,0,32.31,0H2.93
		C1.6,0,0.53,1.08,0.53,2.41V145.56z"/>
	<path d="M416.26,135.63l35.9-15.5V63.09c0-7.32-1.04-13.16-3.13-17.53c-2.09-4.36-5.43-7.56-10.02-9.58
		c-4.59-2.03-10.74-3.04-18.44-3.04c-7.64,0-13.76,1.01-18.35,3.04c-4.59,2.02-7.93,5.22-10.02,9.58
		c-2.09,4.37-3.13,10.21-3.13,17.53v4.33c0,1.61,0.8,2.41,2.41,2.41h19.46c1.6,0,2.41-0.8,2.41-2.41v-4.33
		c0-3.4,0.56-5.84,1.69-7.32c1.12-1.48,2.97-2.22,5.54-2.22v-0.1c2.63,0,4.51,0.74,5.63,2.22c1.12,1.48,1.69,3.95,1.69,7.42v9.44
		h-8.96c-6.68,0-12.52,1.01-17.53,3.03c-5.01,2.03-8.88,4.88-11.61,8.57c-2.73,3.69-4.09,7.98-4.09,12.86v12.43
		c0,5.33,1.01,10.02,3.03,14.06c2.02,4.05,4.88,7.16,8.57,9.34c3.69,2.18,7.98,3.27,12.86,3.27
		C412.33,136.1,414.35,135.93,416.26,135.63z M409.98,102.77c0-2.95,0.82-5.3,2.46-7.03c1.64-1.73,3.8-2.6,6.5-2.6h8.96v17.72
		c0,2.12-0.84,3.9-2.5,5.34c-1.67,1.45-3.82,2.17-6.45,2.17c-2.7,0-4.86-0.96-6.5-2.89c-1.64-1.93-2.46-4.36-2.46-7.32V102.77z"/>
	<path d="M254.52,281.57c-1.29,0-2.33-1.04-2.33-2.33V148.88l25.19,11.95v99.19h27.89c1.29,0,2.33,1.04,2.33,2.33v16.89
		c0,1.29-1.04,2.33-2.33,2.33H254.52z"/>
	<path d="M325.29,281.15c-4.45-2.02-7.68-5.22-9.7-9.61c-2.02-4.38-3.03-10.24-3.03-17.58v-42.91c0-7.34,1.01-13.2,3.03-17.58
		c2.02-4.39,5.25-7.59,9.7-9.61c4.45-2.02,10.37-3.03,17.77-3.03c7.46,0,13.42,1.01,17.86,3.03c4.45,2.02,7.68,5.22,9.7,9.61
		c2.02,4.38,3.03,10.25,3.03,17.58v42.91c0,7.34-1.01,13.2-3.03,17.58c-2.02,4.39-5.26,7.59-9.7,9.61
		c-4.45,2.02-10.4,3.03-17.86,3.03C335.66,284.18,329.74,283.17,325.29,281.15z M336.07,253.96c0,3.48,0.54,5.96,1.63,7.42
		c1.09,1.46,2.88,2.19,5.36,2.19c2.55,0,4.37-0.73,5.46-2.19c1.09-1.46,1.63-3.93,1.63-7.42v-42.91c0-3.48-0.54-5.95-1.63-7.42
		c-1.09-1.46-2.91-2.19-5.46-2.19c-2.55,0-4.35,0.73-5.41,2.19c-1.06,1.46-1.59,3.94-1.59,7.42V253.96z"/>
	<path d="M394.37,278.17c-3.73-2.27-6.61-5.47-8.63-9.61c-2.02-4.13-3.03-8.94-3.03-14.41v-46.27c0-6.28,1.4-11.46,4.2-15.53
		c2.8-4.07,6.36-7.04,10.68-8.91c4.32-1.87,8.82-2.8,13.48-2.8c2.8,0,5.39,0.33,7.79,0.98c2.39,0.66,4.37,1.57,5.92,2.75l0.09-23.36
		l23.51-10.11v128.35c0,1.56-0.78,2.33-2.33,2.33h-18.84c-1.56,0-2.33-0.06-2.33-0.19v-0.09h-0.09v-4.66
		c-4.48,3.3-10.26,4.94-17.35,4.94C402.45,281.57,398.1,280.44,394.37,278.17z M407.15,252.93c0,3.05,0.84,5.55,2.52,7.51
		c1.68,1.96,3.86,2.94,6.53,2.94c2.18,0,4.03-0.5,5.55-1.49c1.52-0.99,2.57-2.3,3.13-3.92v-52.71c-0.56-1.62-1.6-2.92-3.13-3.92
		c-1.52-0.99-3.37-1.49-5.55-1.49c-2.67,0-4.85,1-6.53,2.99c-1.68,1.99-2.52,4.51-2.52,7.56V252.93z"/>
	<path d="M489.52,315.44c-7.4,0-13.33-0.98-17.77-2.94c-4.45-1.96-7.68-5.06-9.7-9.28c-2.02-4.23-3.03-9.89-3.03-16.98v-4.2
		c0-1.55,0.78-2.33,2.33-2.33h18.84c1.55,0,2.33,0.78,2.33,2.33v4.2c0,3.29,0.54,5.66,1.63,7.09c1.09,1.43,2.88,2.15,5.36,2.15h3.64
		c2.55,0,4.37-0.72,5.46-2.15c1.09-1.43,1.63-3.8,1.63-7.09v-14.18c-1.43,1.12-3.33,2.01-5.69,2.66c-2.36,0.66-4.94,0.98-7.74,0.98
		c-4.66,0-9.17-0.92-13.53-2.75c-4.35-1.83-7.96-4.76-10.82-8.77c-2.86-4.01-4.29-9.1-4.29-15.25v-39.74
		c0-5.41,1.01-10.15,3.03-14.23c2.02-4.07,4.9-7.22,8.63-9.42c3.73-2.2,8.08-3.31,13.06-3.31c7.09,0,12.87,1.62,17.35,4.85v-3.08
		l0.09-1.49v-0.28h21.18c1.55,0,2.33,0.78,2.33,2.33l-0.09,101.68c0,6.65-0.9,12.06-2.71,16.23c-1.8,4.17-4.68,7.29-8.63,9.37
		c-3.95,2.08-9.16,3.28-15.63,3.59H489.52z M482.62,246.4c0,2.99,0.84,5.46,2.52,7.42c1.68,1.96,3.86,2.94,6.53,2.94
		c2.18,0,4.04-0.5,5.6-1.49c1.55-0.99,2.58-2.27,3.08-3.82v-45.99c-0.5-1.55-1.52-2.83-3.08-3.82c-1.56-0.99-3.42-1.49-5.6-1.49
		c-2.67,0-4.85,0.96-6.53,2.89c-1.68,1.93-2.52,4.38-2.52,7.37V246.4z"/>
	<path d="M546.38,280.45c-4.45-2.05-7.68-5.27-9.7-9.66c-2.02-4.38-3.03-10.24-3.03-17.58v-43.01c0-7.34,1.01-13.22,3.03-17.63
		c2.02-4.41,5.25-7.63,9.7-9.66c4.45-2.02,10.37-3.03,17.77-3.03c7.46,0,13.42,1.01,17.86,3.03c4.45,2.02,7.68,5.24,9.7,9.66
		c2.02,4.42,3.03,10.29,3.03,17.63v26.49c0,1.56-0.78,2.33-2.33,2.33h-35.26v14.18c0,3.48,0.54,5.96,1.63,7.42
		c1.09,1.46,2.88,2.19,5.36,2.19c2.55,0,4.37-0.73,5.46-2.19c1.09-1.46,1.63-3.93,1.63-7.42v-6.53c0-1.55,0.78-2.33,2.33-2.33h18.84
		c1.55,0,2.33,0.78,2.33,2.33v6.53c0,7.34-1.03,13.2-3.08,17.58c-2.05,4.39-5.3,7.6-9.75,9.66c-4.45,2.05-10.37,3.08-17.77,3.08
		C556.75,283.53,550.83,282.51,546.38,280.45z M571.24,210.21c0-3.48-0.54-5.95-1.63-7.42c-1.09-1.46-2.91-2.19-5.46-2.19
		c-2.49,0-4.28,0.73-5.36,2.19c-1.09,1.46-1.63,3.93-1.63,7.42v8.49h14.09V210.21z"/>
	<path d="M127.48,111.76c-0.26-1.25-0.39-2.73-0.39-4.46V62.99c0-3.59,0.54-6.15,1.64-7.66c1.09-1.51,2.95-2.26,5.59-2.26
		c2.63,0,4.51,0.76,5.63,2.26c1.12,1.51,1.69,4.06,1.69,7.66v44.31c0,3.6-0.56,6.15-1.69,7.66c-1.04,1.39-2.75,2.11-5.08,2.22
		l21.72,15.94c2.66-1.97,4.73-4.51,6.18-7.66c2.09-4.52,3.13-10.58,3.13-18.16V62.99c0-7.58-1.04-13.63-3.13-18.15
		c-2.09-4.53-5.43-7.83-10.02-9.92c-4.59-2.08-10.74-3.13-18.44-3.13c-7.64,0-13.76,1.05-18.35,3.13
		c-4.59,2.09-7.93,5.39-10.02,9.92c-2.09,4.52-3.13,10.58-3.13,18.15v30.67L127.48,111.76z"/>
	<path d="M317.41,45.22c-2.89-4.14-6.57-7.16-11.03-9.05c-4.46-1.89-9.1-2.84-13.92-2.84c-2.89,0-5.57,0.34-8.04,1.01
		c-2.47,0.68-4.51,1.59-6.12,2.75v-1.93c0-1.22-0.8-1.83-2.41-1.83h-19.55c-1.61,0-2.41,0.8-2.41,2.41v88.24l23.73,11.26
		c0.42-0.4,0.63-1.01,0.63-1.83l-0.1-75.03c0.51-1.6,1.57-2.92,3.18-3.95c1.6-1.03,3.53-1.54,5.78-1.54c2.76,0,5.01,1.01,6.74,3.03
		c1.73,2.03,2.6,4.58,2.6,7.66v69.83c0,1.61,0.8,2.41,2.41,2.41h20.42c1.6,0,2.41-0.8,2.41-2.41V60.97
		C321.75,54.61,320.3,49.36,317.41,45.22z"/>
	<g>
		<path d="M470.37,22.25h10.4c2.63,0,4.45-0.5,5.44-1.49c0.99-1,1.49-2.81,1.49-5.44V7.8c0-2.63-0.5-4.44-1.49-5.44
			c-1-0.99-2.81-1.49-5.44-1.49h-10.4c-2.63,0-4.45,0.5-5.44,1.49c-1,1-1.49,2.81-1.49,5.44v7.51c0,2.63,0.5,4.45,1.49,5.44
			C465.92,21.75,467.73,22.25,470.37,22.25z"/>
		<path d="M487.71,104.78V35.64c0-1.6-0.8-2.41-2.41-2.41h-19.46c-1.61,0-2.41,0.8-2.41,2.41v79.62L487.71,104.78z"/>
	</g>
	<g>
		<path d="M500.96,99.06c4.16-1.56,8.76-1.45,12.85,0.3l9.4,4.82l-0.06-45.8c0.51-1.6,1.57-2.92,3.18-3.95
			c1.6-1.03,3.53-1.54,5.78-1.54c2.76,0,5.01,1.01,6.74,3.03c1.73,2.03,2.6,4.58,2.6,7.66v49.95l25.24,12.93V60.97
			c0-6.36-1.44-11.61-4.33-15.75c-2.89-4.14-6.57-7.16-11.03-9.05c-4.46-1.89-9.1-2.84-13.92-2.84c-2.89,0-5.57,0.34-8.04,1.01
			c-2.47,0.68-4.51,1.59-6.12,2.75v-1.93c0-1.22-0.8-1.83-2.41-1.83h-19.55c-1.61,0-2.41,0.8-2.41,2.41v64.22L500.96,99.06z"/>
	</g>
</g>
</svg>
