<?xml version="1.0" encoding="UTF-8"?>
<svg id="Ebene_1" xmlns="http://www.w3.org/2000/svg" viewBox="0 0 790.54 789.53">
  <defs>
    <style>
      .cls-1 {
        fill: #ff9000;
      }

      .cls-2 {
        fill: #390000;
      }
    </style>
  </defs>
  <rect class="cls-2" x=".58" y=".08" width="789.38" height="789.38" rx="31.46" ry="31.46"/>
  <g>
    <rect class="cls-1" x="531.29" y="309.05" width="52.85" height="262.35"/>
    <path class="cls-1" d="M557.72,274.37c17.59,0,31.85-14.26,31.85-31.85s-14.26-31.85-31.85-31.85-31.85,14.26-31.85,31.85,14.26,31.85,31.85,31.85Z"/>
    <path class="cls-1" d="M283.27,218.99l4.81,16.06c.77,2.57.77,5.31,0,7.88l-98.49,328.47h58.15l29.26-97.58h117.56l29.26,97.58h58.15l-106.11-353.89c-.4-1.33-1.62-2.24-3.01-2.24h-86.82c-1.94,0-3.33,1.87-2.77,3.72ZM292.83,421.07l42.96-143.3,42.96,143.3h-85.93Z"/>
  </g>
</svg>