<?xml version="1.0" encoding="UTF-8"?>
<svg id="Ebene_1" xmlns="http://www.w3.org/2000/svg" viewBox="0 0 790.54 789.53">
  <defs>
    <style>
      .cls-1 {
        fill: #ff0063;
      }

      .cls-2 {
        fill: #50001f;
      }
    </style>
  </defs>
  <rect class="cls-2" x="1.16" y=".65" width="788.23" height="788.23" rx="31.46" ry="31.46"/>
  <g>
    <path class="cls-1" d="M207,223.74h68.86c.42,0,.77.34.77.77v353.07c0,.42-.34.77-.77.77h-68.86c-.42,0-.77-.34-.77-.77V224.51c0-.42.34-.77.77-.77Z"/>
    <path class="cls-1" d="M584.31,193.94h-75.01v110.9c-109.47-8.12-172.83,52.55-174.87,145.47,2.27,128.9,124.85,160.81,249.88,112.51V193.94ZM413.83,461.08c-2.31-12.27-2.41-24.95.38-37.12,9.38-40.9,44.85-62,95.09-55.49v148.26c-54.04,7.33-87.05-10.82-95.47-55.64Z"/>
  </g>
</svg>