<?xml version="1.0" encoding="UTF-8"?>
<svg id="Ebene_1" xmlns="http://www.w3.org/2000/svg" viewBox="0 0 790.54 789.53">
  <defs>
    <style>
      .cls-1 {
        fill: #011e37;
      }

      .cls-2 {
        fill: #00adff;
      }
    </style>
  </defs>
  <rect class="cls-1" width="789.5" height="789.5" rx="31.46" ry="31.46"/>
  <g>
    <path class="cls-2" d="M276.13,505.24V221.01c0-2.54-2.06-4.6-4.6-4.6h-58.21c-2.54,0-4.6,2.06-4.6,4.6v347.04c0,2.78,2.25,5.03,5.03,5.03h195.6c1.81,0,3.35-1.31,3.63-3.1l9.7-60.49c.36-2.24-1.37-4.26-3.63-4.26h-142.92Z"/>
    <path class="cls-2" d="M600.67,295.81c-32.93.23-58.46,15.86-79.37,41.11h-.39v-11.79c0-9.72-1.97-16.81-6.95-22.09-1.3-1.38-3.16-2.09-5.05-2.09h-49.65c-2.71,0-4.57,2.61-3.82,5.22,1.54,5.36,1.8,11.22,1.8,18.95v244.77c0,1.76,1.43,3.19,3.19,3.19h61.03c1.76,0,3.19-1.43,3.19-3.19v-172.29c16.71-19.89,42.13-28.37,76.05-25.72,1.9.15,3.54-1.33,3.54-3.24v-69.34c0-1.96-1.61-3.51-3.57-3.5Z"/>
  </g>
</svg>