<?xml version="1.0" encoding="UTF-8"?>
<svg id="Ebene_1" xmlns="http://www.w3.org/2000/svg" viewBox="0 0 790.54 789.53">
  <defs>
    <style>
      .cls-1 {
        fill: #011e37;
      }

      .cls-2 {
        fill: #00adff;
      }
    </style>
  </defs>
  <rect class="cls-1" x=".54" y=".04" width="789.46" height="789.46" rx="31.46" ry="31.46"/>
  <g>
    <path class="cls-2" d="M286.71,209.58h-130.51v358.09h74.01v-110.25h56.5c68.33,0,123.92-55.59,123.92-123.92s-55.59-123.92-123.92-123.92ZM286.71,389.19h-56.5v-111.36h56.5c30.7,0,55.68,24.98,55.68,55.68s-24.98,55.68-55.68,55.68Z"/>
    <path class="cls-2" d="M632.44,364.94v-52.01c0-4.61-2.92-8.7-7.26-10.26-52.64-18.96-133.09-15.11-163.59,33.04-10.68,16.86-13.59,37.44-9.45,56.97,5.77,27.18,24.64,45.44,50.87,58.68,6.28,3.17,12.8,5.84,19.44,8.19,21.17,7.47,41.98,16.9,48.63,28.72,3.37,5.99,1.37,14.48-4.4,18.22-18.4,11.93-69.68,4.66-108.71-13.42-3.36-1.56-7.19.95-7.19,4.65v51.88c0,4.14,2.33,7.97,6.07,9.76,51.12,24.45,172.07,25.06,187.78-50.6,7.54-47.54-13.17-80.95-63.9-99.91-26.65-9.44-54.57-20.13-58.96-35.15-1.07-3.66-.17-7.65,2.16-10.67,14.3-18.52,69.67-10.06,101.05,6.42,3.39,1.78,7.46-.68,7.46-4.51Z"/>
  </g>
</svg>