<?xml version="1.0" encoding="UTF-8"?>
<svg id="Ebene_1" xmlns="http://www.w3.org/2000/svg" viewBox="0 0 790.54 789.53">
  <defs>
    <style>
      .cls-1 {
        fill: #4e0039;
      }

      .cls-2 {
        fill: #ff48fd;
      }
    </style>
  </defs>
  <rect class="cls-1" x="1.01" width="789.53" height="789.53" rx="31.46" ry="31.46"/>
  <g>
    <path class="cls-2" d="M214.31,400.71l-101.53,165.68c-1.9,3.11.33,7.1,3.98,7.1h69.56c3.63,0,6.97-2.01,8.66-5.23l66.1-125.33,68.02,125.43c1.71,3.16,5.02,5.13,8.61,5.13h77.25c3.68,0,5.91-4.07,3.93-7.17l-106.49-166.84,99.06-165.79c1.86-3.11-.38-7.05-4-7.05h-67.01c-3.66,0-7.02,2.04-8.7,5.3l-65.79,127.21-65.79-127.21c-1.68-3.25-5.04-5.3-8.7-5.3h-74.73c-3.64,0-5.87,3.98-3.98,7.08l101.57,166.99Z"/>
    <path class="cls-2" d="M666.74,197.44h-66.72c-1.77,0-3.21,1.44-3.21,3.21v104.94c-106.75-7.92-168.54,51.25-170.54,141.87,2.21,125.7,121.75,156.83,243.68,109.72V200.66c0-1.77-1.44-3.21-3.21-3.21ZM503.7,457.97c-2.25-11.97-2.35-24.33.37-36.2,9.15-39.88,43.74-60.46,92.73-54.12v144.58c-52.7,7.15-84.89-10.55-93.1-54.26Z"/>
  </g>
</svg>